<svg width="20" height="21" viewBox="0 0 20 21" fill="none" xmlns="http://www.w3.org/2000/svg">
<path d="M18.242 2.66016H1.758C1.488 2.66016 1.234 2.72716 1.005 2.83616L9.96 11.7922L11.967 9.86316L18.996 2.83616C18.7611 2.72154 18.5034 2.66138 18.242 2.66016ZM19.824 3.66516L13.211 10.2772L19.824 16.8892C19.9387 16.6547 19.9989 16.3972 20 16.1362V4.41816C20 4.14816 19.934 3.89416 19.824 3.66516ZM0.176 3.66516C0.066 3.89516 0 4.14716 0 4.41816V16.1372C0 16.4072 0.066 16.6612 0.176 16.8902L6.789 10.2772L0.176 3.66516Z" fill="#E3E3E3"/>
<path d="M12.383 11.1064L10.375 13.0364C10.3208 13.091 10.2563 13.1343 10.1852 13.1638C10.1142 13.1933 10.038 13.2085 9.96103 13.2085C9.88409 13.2085 9.8079 13.1933 9.73686 13.1638C9.66581 13.1343 9.6013 13.091 9.54703 13.0364L7.61703 11.1064L1.00403 17.7184C1.23403 17.8284 1.48703 17.8944 1.75803 17.8944H18.242C18.512 17.8944 18.766 17.8284 18.995 17.7184L12.383 11.1064Z" fill="#E3E3E3"/>
</svg>
