<svg width="16" height="21" viewBox="0 0 16 21" fill="none" xmlns="http://www.w3.org/2000/svg">
<path d="M8.00002 0.660156C4.00602 0.660156 0.757019 3.91016 0.757019 7.90316C0.757019 12.8602 7.23902 20.1362 7.51502 20.4432C7.57599 20.5115 7.65072 20.5662 7.7343 20.6036C7.81788 20.6411 7.90843 20.6604 8.00002 20.6604C8.0916 20.6604 8.18215 20.6411 8.26574 20.6036C8.34932 20.5662 8.42404 20.5115 8.48502 20.4432C8.76102 20.1362 15.243 12.8602 15.243 7.90316C15.243 3.91016 11.993 0.660156 8.00002 0.660156ZM8.00002 11.5472C7.0339 11.5461 6.10764 11.1618 5.42449 10.4787C4.74134 9.79553 4.35708 8.86928 4.35602 7.90316C4.35734 6.93721 4.74172 6.01121 5.42484 5.32827C6.10797 4.64534 7.03407 4.26121 8.00002 4.26016C8.96614 4.26121 9.89239 4.64548 10.5755 5.32863C11.2587 6.01178 11.643 6.93803 11.644 7.90416C11.6427 8.87011 11.2583 9.7961 10.5752 10.479C9.89207 11.162 8.96597 11.5461 8.00002 11.5472Z" fill="#E3E3E3"/>
</svg>
