<svg width="68" height="41" viewBox="0 0 68 41" fill="none" xmlns="http://www.w3.org/2000/svg">
<g clip-path="url(#clip0_1_315)">
<path d="M65.2125 31.2489C65.1583 31.1479 65.0747 31.0657 64.9728 31.0132C64.8784 30.9587 64.7715 30.9296 64.6624 30.9287C64.5531 30.9295 64.4458 30.9586 64.351 31.0132C64.231 31.0835 64.1373 31.1913 64.0844 31.3199C64.0314 31.4485 64.022 31.591 64.0576 31.7255C64.0933 31.8599 64.172 31.979 64.2818 32.0645C64.3915 32.15 64.5263 32.1972 64.6654 32.1988C64.7753 32.198 64.8832 32.1689 64.9787 32.1144C65.0753 32.0584 65.1556 31.978 65.2114 31.8813C65.2673 31.7846 65.2968 31.6749 65.297 31.5633C65.2973 31.4529 65.2681 31.3443 65.2125 31.2489ZM64.8795 31.799H64.742L64.6575 31.5908H64.575V31.799H64.463V31.2686H64.686C64.7125 31.2686 64.7685 31.2686 64.8235 31.2981C64.8583 31.3336 64.8783 31.381 64.8795 31.4307C64.8795 31.4896 64.852 31.5446 64.797 31.5682L64.8795 31.799Z" fill="#E3E3E3"/>
<path d="M64.7145 31.3768C64.7145 31.366 64.6595 31.366 64.631 31.366H64.575V31.5035H64.6595C64.6595 31.5035 64.688 31.5035 64.7145 31.4917C64.744 31.4799 64.744 31.4544 64.744 31.4299C64.744 31.4102 64.744 31.3876 64.7145 31.3768ZM46.9929 1.01369C42.1217 1.00753 37.4234 2.8184 33.8166 6.09222C30.2115 2.82163 25.5167 1.0123 20.6491 1.01762H20.5224C9.73811 1.08834 1.00696 9.86035 1.00696 20.6598C1.00696 31.5035 9.80688 40.3001 20.6481 40.3001C25.7131 40.3001 30.3302 38.3787 33.8156 35.2255C33.0927 34.5618 32.4211 33.8443 31.8067 33.0791H35.8638C35.2517 33.828 34.5852 34.5306 33.8696 35.1813H33.8657L33.8667 35.1852C33.8509 35.1999 33.8333 35.2108 33.8175 35.2265C37.4252 38.5029 42.1262 40.3144 46.9997 40.306C57.8488 40.303 66.637 31.5065 66.634 20.6598V20.651C66.6321 9.80534 57.8361 1.01369 46.9929 1.01369ZM32.0306 8.12265H35.7626C36.3169 8.78877 36.8262 9.49104 37.2872 10.2248H30.6298C31.0552 9.52243 31.5267 8.8024 32.0306 8.12265ZM29.4667 12.2886H38.4169C38.7382 12.9703 39.0201 13.6727 39.2647 14.3937H28.4058C28.5128 14.1904 28.892 13.3721 29.4667 12.2886ZM19.5695 25.369H17.2384L18.6255 18.0931L15.4348 25.369H13.3257L12.9376 18.1412L11.5496 25.369H9.43948L11.245 15.9084H14.8797L15.0467 21.7679L17.6284 15.9084H21.4036L19.5695 25.369ZM27.8134 21.2807L27.3134 24.0144L27.2309 24.5036L27.1759 24.8936L27.1464 25.1568L27.1199 25.3651H25.1778L25.2337 24.5694C24.6522 25.204 23.8457 25.4977 22.7916 25.4977C21.5421 25.4977 20.6815 24.6401 20.6815 23.3995C20.6815 21.5262 22.1806 20.4319 24.7603 20.4319C25.0098 20.4319 25.3428 20.4545 25.7033 20.4909C25.7593 20.2374 25.7878 20.1323 25.7878 19.9909C25.7878 19.483 25.3703 19.2934 24.2887 19.2934C23.6227 19.2934 22.8732 19.373 22.3741 19.5056L22.0401 19.5901L21.8466 19.6402L22.1511 17.9074C23.3172 17.6117 24.0667 17.5017 24.9273 17.5017C26.9244 17.5017 27.9804 18.2836 27.9804 19.7581C27.9804 20.1402 27.9529 20.426 27.8134 21.2807ZM32.4501 17.484C34.3637 17.484 35.5868 18.5724 35.5868 20.2787C35.5868 20.8484 35.5023 21.4005 35.3058 22.1804H30.7015C30.6721 22.2983 30.6721 22.3514 30.6721 22.425C30.6721 23.315 31.3666 23.7688 32.6986 23.7688C33.5327 23.7688 34.2812 23.6195 35.1133 23.2816L34.7262 25.2079C33.9569 25.4153 33.1634 25.5197 32.3666 25.5183C29.7585 25.5183 28.3979 24.3356 28.3979 22.0685C28.3979 19.43 30.118 17.487 32.4501 17.484ZM37.3118 31.0576H30.342C29.9131 30.3811 29.526 29.6791 29.1828 28.9554H38.4552C38.1153 29.6823 37.7342 30.3817 37.3118 31.0576ZM41.5811 19.4408C41.019 19.3729 40.4536 19.3355 39.8875 19.3288C39.137 19.3288 38.749 19.54 38.749 19.9536C38.749 20.3141 38.861 20.4005 39.8315 20.7905C41.0231 21.2581 41.4976 21.8769 41.4976 22.9329C41.4976 24.6893 40.359 25.5006 37.8599 25.5006C37.5564 25.5006 37.1409 25.4781 36.5848 25.4368C36.3709 25.425 36.1577 25.4014 35.9463 25.3661L35.5298 25.2904L35.4188 25.2688L35.7518 23.4938C36.4369 23.6963 37.1475 23.7988 37.8619 23.7983C38.7774 23.7983 39.194 23.5832 39.194 23.1038C39.194 22.7512 39.0545 22.6372 38.1114 22.2541C36.8638 21.7512 36.3078 21.0793 36.3078 20.1088C36.3078 18.6874 37.2234 17.5047 39.8335 17.5047C40.3895 17.5047 41.305 17.5724 41.9131 17.6559L41.5811 19.4408ZM45.2197 23.647C45.4683 23.647 45.6618 23.6225 45.8288 23.5724L45.5242 25.2796C44.8857 25.4545 44.3867 25.5321 43.8582 25.5321C42.6646 25.5321 42.0261 24.9319 42.0261 23.8405C42.0261 23.6244 42.0536 23.3936 42.0811 23.15L42.2206 22.3926L42.3306 21.7836L43.4132 15.9084H45.7158L45.3838 17.6756H46.5763L46.2423 19.5479H45.0488L44.4397 22.758C44.4103 22.8975 44.4103 23.0036 44.4103 23.0753C44.4103 23.4751 44.6617 23.6451 45.2197 23.647ZM50.8967 19.8406C49.7867 19.8406 49.4271 20.6677 48.5941 25.3729H46.262L47.6786 17.6766H49.7877L49.5657 18.8455C50.2877 17.9359 50.8407 17.5941 51.5913 17.5941C51.6757 17.5941 51.7602 17.6019 51.8427 17.6137C51.8427 17.6166 51.9282 17.6324 52.0402 17.6589C52.0677 17.6667 52.0942 17.6667 52.2897 17.7434L51.4606 19.9182L51.1826 19.8612C51.0878 19.8486 50.9923 19.841 50.8967 19.8406ZM55.0148 25.5753C52.3722 25.5753 51.3211 23.9791 51.3211 22.0262C51.3211 19.3013 53.1247 17.4516 55.8989 17.4516C58.3174 17.4516 59.5935 18.9722 59.5935 20.9231C59.5935 21.4015 59.5935 21.4339 59.5385 21.8818C59.176 24.4407 57.3999 25.5782 55.0148 25.5753ZM59.787 25.369C59.6262 25.3695 59.4716 25.3064 59.3572 25.1934C59.2427 25.0804 59.1776 24.9267 59.176 24.7659C59.1791 24.6061 59.2449 24.4539 59.3592 24.3421C59.4735 24.2304 59.6272 24.1681 59.787 24.1686C59.9471 24.1678 60.101 24.23 60.2155 24.3418C60.33 24.4536 60.3959 24.6059 60.399 24.7659C60.3975 24.9269 60.3322 25.0807 60.2175 25.1938C60.1028 25.3068 59.9481 25.3698 59.787 25.369Z" fill="#E3E3E3"/>
<path d="M59.788 24.3125C59.6658 24.3124 59.5484 24.3598 59.4604 24.4446C59.3724 24.5295 59.3209 24.6452 59.3165 24.7673C59.3194 24.8905 59.3703 25.0076 59.4584 25.0938C59.5465 25.1799 59.6648 25.228 59.788 25.228C60.0385 25.228 60.232 25.0217 60.232 24.7673C60.2329 24.7082 60.2222 24.6496 60.2003 24.5947C60.1784 24.5398 60.1459 24.4898 60.1047 24.4475C60.0634 24.4052 60.0142 24.3715 59.9598 24.3484C59.9055 24.3252 59.8471 24.313 59.788 24.3125ZM60.0081 25.0355H59.8686L59.7851 24.8292H59.7006V25.0355H59.5896V24.5031H59.8116C59.8411 24.5031 59.8971 24.506 59.9531 24.5345C59.9875 24.5702 60.0071 24.6176 60.0081 24.6671C60.009 24.6957 60.0016 24.7239 59.9867 24.7483C59.9719 24.7727 59.9503 24.7923 59.9246 24.8046L60.0081 25.0355Z" fill="#E3E3E3"/>
<path d="M59.8411 24.6114C59.843 24.5997 59.787 24.5997 59.7605 24.5997H59.7016V24.7372H59.786C59.786 24.7372 59.8145 24.7372 59.8411 24.7254C59.8705 24.7136 59.8705 24.6871 59.8705 24.6645C59.8705 24.6448 59.8705 24.6222 59.8411 24.6114ZM32.4226 19.248C31.6731 19.248 31.1455 19.7372 30.9235 20.6292L33.5051 20.6341V20.2362C33.5051 19.6115 33.1161 19.248 32.4226 19.248ZM24.8988 21.914C23.5962 21.9121 22.9291 22.307 22.9291 23.0849C22.9291 23.5633 23.2356 23.8688 23.7622 23.8688C24.7062 23.8688 25.3713 23.081 25.4273 21.9425C25.2519 21.9219 25.0754 21.9131 24.8988 21.914ZM55.8458 19.3355C54.6513 19.3355 53.9302 20.7382 53.9302 21.9739C53.9302 23.0201 54.4293 23.7225 55.2633 23.7058C55.7643 23.7058 56.8449 23.0162 57.0394 21.8197C57.0934 21.5388 57.1219 21.2313 57.1219 20.8964C57.1219 20.0948 56.7908 19.3335 55.8458 19.3355Z" fill="#E3E3E3"/>
</g>
<defs>
<clipPath id="clip0_1_315">
<rect width="66.8" height="40" fill="white" transform="translate(0.559998 0.660156)"/>
</clipPath>
</defs>
</svg>
