<svg width="124" height="31" viewBox="0 0 124 31" fill="none" xmlns="http://www.w3.org/2000/svg">
<g clip-path="url(#clip0_1_322)">
<path d="M95.5585 7.39356H88.7782C88.5541 7.39367 88.3373 7.47378 88.1669 7.61946C87.9966 7.76514 87.8838 7.96683 87.8489 8.18825L85.1069 25.5718C85.0942 25.6524 85.0991 25.7349 85.1214 25.8135C85.1436 25.892 85.1826 25.9648 85.2357 26.0269C85.2887 26.089 85.3546 26.1388 85.4288 26.173C85.5029 26.2072 85.5836 26.2249 85.6653 26.2249H89.1441C89.3012 26.2251 89.4532 26.1691 89.5726 26.0671C89.692 25.9651 89.771 25.8237 89.7953 25.6685L90.573 20.7398C90.6081 20.5183 90.7211 20.3166 90.8916 20.1709C91.0621 20.0253 91.279 19.9452 91.5033 19.9451H93.6481C98.1131 19.9451 100.691 17.7834 101.365 13.5008C101.668 11.6283 101.377 10.1555 100.499 9.12553C99.535 7.99182 97.8269 7.39356 95.5585 7.39356ZM96.3412 13.7421C95.9703 16.1751 94.1117 16.1751 92.3139 16.1751H91.2919L92.0098 11.6322C92.0307 11.4993 92.0983 11.3782 92.2005 11.2907C92.3026 11.2031 92.4327 11.1549 92.5672 11.1546H93.0358C94.2593 11.1546 95.4159 11.1546 96.0112 11.8526C96.3682 12.2694 96.4769 12.8876 96.3412 13.7421ZM47.2059 7.39356H40.4276C40.2032 7.3934 39.986 7.47336 39.8153 7.61905C39.6446 7.76473 39.5315 7.96658 39.4963 8.18825L36.7553 25.5718C36.7426 25.6524 36.7475 25.7349 36.7698 25.8135C36.792 25.892 36.831 25.9648 36.8841 26.0269C36.9371 26.089 37.003 26.1388 37.0771 26.173C37.1513 26.2072 37.232 26.2249 37.3136 26.2249H40.5502C41.0139 26.2249 41.4078 25.8879 41.4815 25.4302L42.2214 20.7398C42.2565 20.5185 42.3693 20.3169 42.5396 20.1712C42.71 20.0256 42.9266 19.9454 43.1507 19.9451H45.2965C49.7615 19.9451 52.339 17.7834 53.0121 13.5008C53.3162 11.6283 53.025 10.1555 52.1476 9.12553C51.1834 7.99182 49.4743 7.39356 47.2059 7.39356ZM47.9886 13.7421C47.6187 16.1751 45.7601 16.1751 43.9623 16.1751H42.9393L43.6572 11.6322C43.6781 11.4992 43.7459 11.3779 43.8482 11.2904C43.9506 11.2028 44.0809 11.1547 44.2156 11.1546H44.6842C45.9077 11.1546 47.0633 11.1546 47.6596 11.8526C48.0156 12.2694 48.1233 12.8876 47.9886 13.7421ZM67.4691 13.6643H64.2235C64.0888 13.6644 63.9585 13.7125 63.8561 13.8001C63.7538 13.8876 63.686 14.0089 63.6651 14.142L63.5215 15.0493L63.2952 14.7203C62.5912 13.7002 61.0248 13.3592 59.4603 13.3592C55.8748 13.3592 52.8096 16.0773 52.2144 19.8883C51.9033 21.7898 52.344 23.6075 53.4229 24.8758C54.413 26.0414 55.8269 26.526 57.511 26.526C60.4026 26.526 62.0049 24.6694 62.0049 24.6694L61.8604 25.5718C61.8477 25.6524 61.8526 25.7349 61.8749 25.8135C61.8971 25.892 61.9361 25.9648 61.9892 26.0269C62.0422 26.089 62.1081 26.1388 62.1823 26.173C62.2564 26.2072 62.3371 26.2249 62.4187 26.2249H65.3413C65.8049 26.2249 66.1988 25.8879 66.2716 25.4302L68.0265 14.3175C68.0393 14.2368 68.0345 14.1542 68.0123 14.0756C67.9902 13.997 67.9512 13.9241 67.8981 13.862C67.845 13.7999 67.779 13.75 67.7048 13.7159C67.6306 13.6818 67.5508 13.6642 67.4691 13.6643ZM62.9452 19.983C62.6311 21.8376 61.1584 23.083 59.2809 23.083C58.3396 23.083 57.5858 22.7799 57.1012 22.2065C56.6206 21.6382 56.4401 20.8285 56.5927 19.9262C56.8848 18.0885 58.3815 16.8032 60.2301 16.8032C61.1524 16.8032 61.9003 17.1083 62.3938 17.6877C62.8924 18.27 63.0868 19.0856 62.9452 19.983ZM115.821 13.6643H112.575C112.44 13.6642 112.31 13.7122 112.208 13.7998C112.105 13.8874 112.037 14.0088 112.017 14.142L111.874 15.0493L111.647 14.7203C110.944 13.7002 109.377 13.3592 107.812 13.3592C104.226 13.3592 101.162 16.0773 100.566 19.8883C100.256 21.7898 100.697 23.6075 101.774 24.8758C102.766 26.0414 104.179 26.526 105.864 26.526C108.754 26.526 110.358 24.6694 110.358 24.6694L110.212 25.5718C110.199 25.6524 110.204 25.7349 110.226 25.8135C110.249 25.892 110.288 25.9648 110.341 26.0269C110.394 26.089 110.46 26.1388 110.534 26.173C110.608 26.2072 110.689 26.2249 110.77 26.2249H113.694C114.158 26.2249 114.551 25.8879 114.624 25.4302L116.379 14.3175C116.392 14.2368 116.387 14.1543 116.365 14.0758C116.342 13.9972 116.303 13.9244 116.25 13.8623C116.197 13.8003 116.131 13.7504 116.057 13.7162C115.983 13.6821 115.902 13.6644 115.821 13.6643ZM111.297 19.983C110.984 21.8376 109.511 23.083 107.633 23.083C106.691 23.083 105.938 22.7799 105.453 22.2065C104.973 21.6382 104.793 20.8285 104.944 19.9262C105.237 18.0885 106.733 16.8032 108.583 16.8032C109.504 16.8032 110.253 17.1083 110.746 17.6877C111.244 18.27 111.439 19.0856 111.297 19.983ZM84.7579 13.6643H81.4954C81.3416 13.6644 81.1902 13.702 81.0542 13.774C80.9183 13.8459 80.8021 13.95 80.7156 14.0771L76.2157 20.7059L74.3082 14.3364C74.2501 14.1422 74.1309 13.972 73.9684 13.8509C73.8058 13.7298 73.6085 13.6644 73.4058 13.6643H70.1972C70.1072 13.6643 70.0186 13.6857 69.9386 13.7268C69.8586 13.7679 69.7895 13.8274 69.7371 13.9006C69.6848 13.9737 69.6506 14.0583 69.6375 14.1472C69.6244 14.2362 69.6327 14.3271 69.6617 14.4122L73.2553 24.9576L69.8751 29.7247C69.8151 29.8093 69.7795 29.9089 69.7723 30.0124C69.765 30.1159 69.7864 30.2194 69.8341 30.3115C69.8818 30.4037 69.9539 30.4809 70.0426 30.5349C70.1312 30.5888 70.233 30.6172 70.3368 30.6171H73.5973C73.7494 30.617 73.8993 30.58 74.034 30.5093C74.1688 30.4386 74.2844 30.3364 74.371 30.2113L85.2215 14.5508C85.2803 14.466 85.3148 14.3667 85.3212 14.2637C85.3275 14.1607 85.3056 14.0579 85.2577 13.9665C85.2099 13.875 85.1379 13.7985 85.0496 13.745C84.9613 13.6916 84.8601 13.6634 84.7569 13.6634L84.7579 13.6643ZM119.648 7.87117L116.865 25.5718C116.852 25.6524 116.857 25.7349 116.879 25.8135C116.901 25.892 116.94 25.9648 116.993 26.0269C117.047 26.089 117.112 26.1388 117.187 26.173C117.261 26.2072 117.341 26.2249 117.423 26.2249H120.221C120.445 26.225 120.662 26.145 120.833 25.9993C121.003 25.8536 121.116 25.6518 121.151 25.4302L123.895 8.04666C123.908 7.966 123.903 7.88354 123.881 7.80498C123.859 7.72641 123.82 7.65359 123.766 7.59153C123.713 7.52946 123.648 7.47963 123.573 7.44546C123.499 7.41128 123.419 7.39358 123.337 7.39356H120.206C120.071 7.39318 119.941 7.44117 119.838 7.5288C119.736 7.61644 119.668 7.73792 119.648 7.87117Z" fill="#E3E3E3"/>
<path opacity="0.68" d="M23.4559 8.30306C23.8208 5.97582 23.4539 4.39241 22.1955 2.95858C20.8086 1.37916 18.3068 0.703125 15.1031 0.703125H5.80613C5.15203 0.703125 4.59465 1.17974 4.49195 1.82587L0.621187 26.3746C0.603174 26.4884 0.610056 26.6049 0.641357 26.7158C0.672658 26.8268 0.727635 26.9296 0.802502 27.0173C0.877368 27.1049 0.970346 27.1753 1.07503 27.2236C1.17972 27.2719 1.29362 27.2969 1.4089 27.2969H7.14823L6.75238 29.8096C6.73667 29.9093 6.74276 30.0112 6.77022 30.1083C6.79767 30.2053 6.84586 30.2953 6.91144 30.372C6.97702 30.4487 7.05845 30.5102 7.15011 30.5524C7.24177 30.5945 7.34148 30.6163 7.44238 30.6163H12.2803C12.8527 30.6163 13.3403 30.1995 13.429 29.6341L13.4769 29.3878L14.3882 23.6086L14.447 23.2895C14.5368 22.7242 15.0234 22.3064 15.5957 22.3064H16.3196C21.006 22.3064 24.6763 20.4019 25.7492 14.8959C26.1979 12.5946 25.9656 10.6742 24.78 9.32409C24.4046 8.9059 23.9558 8.55987 23.4559 8.30306Z" fill="#E3E3E3"/>
<path opacity="0.7" d="M23.4559 8.30306C23.8208 5.97582 23.4539 4.39241 22.1955 2.95858C20.8086 1.37916 18.3068 0.703125 15.1031 0.703125H5.80613C5.15203 0.703125 4.59465 1.17974 4.49195 1.82587L0.621187 26.3746C0.603174 26.4884 0.610056 26.6049 0.641357 26.7158C0.672658 26.8268 0.727635 26.9296 0.802502 27.0173C0.877368 27.1049 0.970346 27.1753 1.07503 27.2236C1.17972 27.2719 1.29362 27.2969 1.4089 27.2969H7.14823L8.59005 18.1545L8.54518 18.4416C8.59347 18.1289 8.75197 17.8438 8.99205 17.6377C9.23213 17.4317 9.53798 17.3182 9.85438 17.3179H12.5825C17.9409 17.3179 22.1347 15.1412 23.3612 8.84748C23.398 8.66102 23.428 8.48054 23.4559 8.30306Z" fill="#E3E3E3"/>
<path d="M10.1395 8.33397C10.1826 8.06007 10.3221 7.81056 10.5329 7.63047C10.7437 7.45038 11.0119 7.35155 11.2892 7.35182H18.5771C19.4405 7.35182 20.2452 7.40865 20.9801 7.52631C21.1915 7.56021 21.3959 7.6001 21.5953 7.64397C21.8835 7.70763 22.1683 7.7855 22.4488 7.87729C22.8108 7.99695 23.1468 8.13953 23.4559 8.30306C23.8218 5.97582 23.4539 4.39341 22.1955 2.95858C20.8106 1.37916 18.3078 0.703125 15.1031 0.703125H5.80613C5.15203 0.703125 4.59465 1.17974 4.49195 1.82587L0.621187 26.3746C0.603174 26.4884 0.610056 26.6049 0.641357 26.7158C0.672658 26.8268 0.727635 26.9296 0.802502 27.0173C0.877368 27.1049 0.970346 27.1753 1.07503 27.2236C1.17972 27.2719 1.29362 27.2969 1.4089 27.2969H7.14823L8.59005 18.1545L10.1395 8.33397Z" fill="#E3E3E3"/>
</g>
<defs>
<clipPath id="clip0_1_322">
<rect width="123.641" height="30" fill="white" transform="translate(0.349976 0.660156)"/>
</clipPath>
</defs>
</svg>
