<svg width="20" height="21" viewBox="0 0 20 21" fill="none" xmlns="http://www.w3.org/2000/svg">
<path d="M18.395 13.7882C17.1837 13.79 15.9798 13.5982 14.829 13.2202C14.271 13.0302 13.585 13.2042 13.244 13.5542L10.995 15.2512C8.387 13.8602 6.781 12.2532 5.407 9.66516L7.055 7.47516C7.26555 7.26513 7.41411 7.00111 7.48432 6.71212C7.55454 6.42313 7.5437 6.12038 7.453 5.83716C7.07366 4.68452 6.88122 3.47861 6.883 2.26516C6.883 1.38016 6.163 0.660156 5.278 0.660156H1.605C0.72 0.660156 0 1.38016 0 2.26516C0 12.4082 8.252 20.6602 18.395 20.6602C19.28 20.6602 20 19.9402 20 19.0552V15.3932C20 14.5082 19.28 13.7882 18.395 13.7882Z" fill="#E3E3E3"/>
</svg>
