<svg width="98" height="31" viewBox="0 0 98 31" fill="none" xmlns="http://www.w3.org/2000/svg">
<g clip-path="url(#clip0_1_309)">
<path d="M38.927 1.24121L34.0025 30.1394H41.879L46.8065 1.24121H38.927ZM27.3996 1.27502L19.6861 20.9813L18.8629 18.0064C17.3416 14.4211 13.0236 9.27185 7.95285 6.02659L15.0061 30.1255L23.34 30.1115L35.7434 1.26806L27.3996 1.27502Z" fill="#E3E3E3"/>
<path d="M15.8735 3.34211C15.4162 1.58227 14.0898 1.0573 12.4422 0.994659H0.231422L0.130005 1.56934C9.63239 3.87503 15.9203 9.42897 18.5293 16.1074L15.8745 3.34211H15.8735ZM62.771 6.78225C65.3482 6.74248 67.2155 7.30523 68.6661 7.88886L69.377 8.22293L70.4429 1.95909C68.8819 1.37447 66.4379 0.746094 63.3865 0.746094C55.6032 0.746094 50.1177 4.66547 50.075 10.283C50.0253 14.4331 53.9825 16.7507 56.9723 18.1347C60.0417 19.5525 61.0708 20.4533 61.0569 21.72C61.032 23.6538 58.6089 24.5417 56.3469 24.5417C53.193 24.5417 51.5177 24.1062 48.9296 23.0285L47.9154 22.5661L46.8077 29.0348C48.6511 29.8431 52.0516 30.5371 55.5833 30.5739C63.8617 30.5739 69.2418 26.7013 69.2985 20.6989C69.3333 17.4149 67.2324 14.9093 62.6815 12.8542C59.9263 11.5119 58.241 10.6211 58.2569 9.2679C58.2569 8.06683 59.6867 6.78225 62.771 6.78225ZM90.6557 1.27405H84.5707C82.6796 1.27405 81.2737 1.78808 80.4444 3.6722L68.7477 30.1563H77.0201C77.0201 30.1563 78.3684 26.5949 78.6746 25.8154C79.5794 25.8154 87.6152 25.8273 88.7606 25.8273C88.9953 26.8355 89.7201 30.1563 89.7201 30.1563H97.0271L90.6547 1.27305L90.6557 1.27405ZM80.9416 19.8995C81.5899 18.2411 84.0795 11.8241 84.0795 11.8241C84.0368 11.9027 84.7218 10.1528 85.1295 9.06507L85.6595 11.5567L87.485 19.9005H80.9426L80.9416 19.8995Z" fill="#E3E3E3"/>
</g>
<defs>
<clipPath id="clip0_1_309">
<rect width="97.44" height="30" fill="white" transform="translate(0.130005 0.660156)"/>
</clipPath>
</defs>
</svg>
